<?xml version="1.0" encoding="UTF-8"?>
<svg xmlns='http://www.w3.org/2000/svg' fill="#000">
    <!-- PRIVATE SYMBOLS -->
    <symbol id="_triangle" width="20" height="20">
        <path d="M10 15L2 5h16l-8 10z" />
    </symbol>
    <symbol id="_expand-sidebar" width="20" height="20">
        <path fill-rule='evenodd' d='M1 1v6h2V3h4V1H1zm2 12H1v6h6v-2H3v-4zm14 4h-4v2h6v-6h-2v4zm0-16h-4v2h4v4h2V1h-2z' />
    </symbol>
    <symbol id="_collapse-sidebar" width="20" height="20">
        <path fill-rule='evenodd' d='M7 7V1H5v4H1v2h6zM5 19h2v-6H1v2h4v4zm10-4h4v-2h-6v6h2v-4zm0-8h4V5h-4V1h-2v6h2z'/>
    </symbol>
    <symbol id="_collapse-dropdown" width="16" height="16">
        <use href="#_triangle" />
    </symbol>
    <symbol id="_expand-dropdown" width="16" height="16">
        <g transform="rotate(-90, 8, 8)">
            <use href="#_triangle" />
        </g>
    </symbol>
    <symbol id="_more" width="20" height="20">
        <path d='M14 6C14 7.10457 13.1046 8 12 8C10.8954 8 10 7.10457 10 6C10 4.89543 10.8954 4 12 4C13.1046 4 14 4.89543 14 6Z'/>
        <path d='M14 12C14 13.1046 13.1046 14 12 14C10.8954 14 10 13.1046 10 12C10 10.8954 10.8954 10 12 10C13.1046 10 14 10.8954 14 12Z'/>
        <path d='M14 18C14 19.1046 13.1046 20 12 20C10.8954 20 10 19.1046 10 18C10 16.8954 10.8954 16 12 16C13.1046 16 14 16.8954 14 18Z'/>
    </symbol>
    <symbol id="_top" width="20" height="20">
        <path d="M1 13.75l1.5 1.5 7.5-7.5 7.5 7.5 1.5-1.5-9-9-9 9z" />
    </symbol>
    <symbol id="_toc" width="20" height="20">
        <path d="M7 15h12v2H7zm0-6h12v2H7zm0-6h12v2H7zM2 6h1V1H1v1h1zm1 9v1H2v1h1v1H1v1h3v-5H1v1zM1 8v1h2v1H1.5a.5.5 0 00-.5.5V13h3v-1H2v-1h1.5a.5.5 0 00.5-.5v-2a.5.5 0 00-.5-.5z" />
    </symbol>
    <symbol id="_edit" width="20" height="20">
        <path d='m16.77 8 1.94-2a1 1 0 0 0 0-1.41l-3.34-3.3a1 1 0 0 0-1.41 0L12 3.23zM1 14.25V19h4.75l9.96-9.96-4.75-4.75z'/>
    </symbol>
    <symbol id="_talk" width="20" height="20">
        <path d='M18 0H2a2 2 0 0 0-2 2v18l4-4h14a2 2 0 0 0 2-2V2a2 2 0 0 0-2-2zm-4 4a1.5 1.5 0 1 1-1.5 1.5A1.5 1.5 0 0 1 14 4zM6 4a1.5 1.5 0 1 1-1.5 1.5A1.5 1.5 0 0 1 6 4zm4 8c-2.61 0-4.83-.67-5.65-3h11.3c-.82 2.33-3.04 3-5.65 3z'/>
    </symbol>
    <symbol id="_history" width="20" height="20">
        <path d='M9 6v5h.06l2.48 2.47 1.41-1.41L11 10.11V6z'/>
        <path d='M10 1a9 9 0 0 0-7.85 13.35L.5 16H6v-5.5l-2.38 2.38A7 7 0 1 1 10 17v2a9 9 0 0 0 0-18z'/>
    </symbol>
    <symbol id="_edit-source" width="20" height="20">
        <path d='M1 3v14h3v-2H3V5h1V3zm4 0v14h4v-2H7V5h2V3zm11 0v2h1v10h-1v2h3V3zm-5 0v2h2v10h-2v2h4V3z'/>
    </symbol>
    <symbol id="_create" width="16" height="16">
        <path d='M4 2v16h4v-2H6V4h3.994v4H14v1h2V7.01L11 2z' />
        <path d='M13.339 10a.641.641 0 0 0-.643.643v.418a3.536 3.536 0 0 0-1.064.44l-.291-.291a.64.64 0 0 0-.91 0l-.226.228a.641.641 0 0 0 0 .909l.293.293a3.536 3.536 0 0 0-.437 1.056h-.418A.641.641 0 0 0 9 14.34v.322c0 .356.286.643.643.643h.418a3.536 3.536 0 0 0 .44 1.064l-.296.297a.641.641 0 0 0 0 .91l.227.227a.642.642 0 0 0 .909 0l.3-.3a3.536 3.536 0 0 0 1.055.437v.418c0 .357.287.643.643.643h.322a.641.641 0 0 0 .643-.643v-.418a3.536 3.536 0 0 0 1.056-.436l.3.299a.642.642 0 0 0 .908 0l.228-.228a.641.641 0 0 0 0-.909l-.298-.299a3.536 3.536 0 0 0 .441-1.062h.418A.641.641 0 0 0 18 14.66v-.322a.641.641 0 0 0-.643-.643h-.418a3.536 3.536 0 0 0-.436-1.056l.293-.293a.641.641 0 0 0 0-.91l-.228-.227a.642.642 0 0 0-.909 0l-.292.292a3.536 3.536 0 0 0-1.063-.441v-.418A.641.641 0 0 0 13.66 10zm.161 2.5a2 2 0 0 1 2 2 2 2 0 0 1-2 2 2 2 0 0 1-2-2 2 2 0 0 1 2-2z' />
    </symbol>
    <symbol id="_view" width="16" height="16">
        <path d='M9.92 4.91c-2.78 0-5.42 1.77-7.53 4.95l-.371.555.371.555c2.12 3.17 4.76 4.95 7.53 4.95 2.78 0 5.42-1.77 7.53-4.95l.371-.555-.371-.555c-2.12-3.17-4.76-4.95-7.53-4.95zm0 2c1.75 0 3.6 1.19 5.34 3.5-1.74 2.31-3.59 3.5-5.34 3.5s-3.6-1.19-5.34-3.5c1.74-2.31 3.59-3.5 5.34-3.5z'/>
        <path d='M9.84 5.31C7.72 5.31 6 7.04 6 9.15c0 2.12 1.73 3.84 3.84 3.84 2.12 0 3.84-1.73 3.84-3.84 0-2.12-1.73-3.84-3.84-3.84zm0 1c1.58 0 2.84 1.27 2.84 2.84 0 1.58-1.27 2.84-2.84 2.84C8.26 11.99 7 10.72 7 9.15c0-1.58 1.27-2.84 2.84-2.84z'/>
    </symbol>
    <symbol id="_page" width="20" height="20">
        <path d='M4 2v16h12V7.01L11 2zm2 2h3.994v4H14v8H6z'/>
    </symbol>
    <symbol id="_contributions" width="20" height="20">
        <path d='M4 5v3.272A2 2 0 0 1 5 8a2 2 0 0 1 2 2 2 2 0 0 1-2 2 2 2 0 0 1-1-.27V15h10V5H4z'/>
        <circle cx='15.001' cy='10' r='2'/>
        <circle cx='9' cy='4' r='2'/>
        <circle cx='9' cy='16' r='2'/>
    </symbol>
    <symbol id="_add-section" width="20" height="20">
        <rect width='2' height='12' x='9' y='4' ry='0'/>
        <rect width='12' height='2' x='4' y='9' ry='0'/>
    </symbol>
    <symbol id="_navigation" width="20" height="20">
        <path d="M 6.875,0 H 2.5 A 2.5075,2.5075 0 0 0 0,2.5 v 4.375 a 2.5075,2.5075 0 0 0 2.5,2.5 h 4.375 a 2.5075,2.5075 0 0 0 2.5,-2.5 V 2.5 A 2.5075,2.5075 0 0 0 6.875,0 Z m 0,6.875 H 2.5 V 2.5 H 6.875 Z M 18.75,3.4375 a 1.25,1.25 0 0 0 -1.25,1.25 V 6.875 H 13.125 V 2.5 h 2.1875 a 1.25,1.25 0 0 0 0,-2.5 H 13.125 a 2.5075,2.5075 0 0 0 -2.5,2.5 v 4.375 a 2.5075,2.5075 0 0 0 2.5,2.5 H 17.5 A 2.5075,2.5075 0 0 0 20,6.875 V 4.6875 a 1.25,1.25 0 0 0 -1.25,-1.25 z M 6.875,10.625 H 2.5 A 2.5075,2.5075 0 0 0 0,13.125 V 17.5 A 2.5075,2.5075 0 0 0 2.5,20 h 4.375 a 2.5075,2.5075 0 0 0 2.5,-2.5 v -4.375 a 2.5075,2.5075 0 0 0 -2.5,-2.5 z m 0,6.875 H 2.5 V 13.125 H 6.875 Z M 17.5,10.625 h -4.375 a 2.5075,2.5075 0 0 0 -2.5,2.5 V 17.5 a 2.5075,2.5075 0 0 0 2.5,2.5 H 17.5 A 2.5075,2.5075 0 0 0 20,17.5 v -4.375 a 2.5075,2.5075 0 0 0 -2.5,-2.5 z m 0,6.875 H 13.125 V 13.125 H 17.5 Z" />
    </symbol>
    <symbol id="_copy" width="20" height="20">
        <path d='M2 2h8v2h2V2c0-1.1-.895-2-2-2H2C.9 0 0 .895 0 2v8c0 1.1.895 2 2 2h2v-2H2Z'/>
        <path d='M8 8h8v8H8Zm0-2c-1.1 0-2 .895-2 2v8c0 1.1.895 2 2 2h8c1.1 0 2-.895 2-2V8c0-1.1-.895-2-2-2Z'/>
    </symbol>
    <symbol id="_languages" width="20" height="20">
        <path d='M20 18h-1.44a.61.61 0 0 1-.4-.12.81.81 0 0 1-.23-.31L17 15h-5l-1 2.54a.77.77 0 0 1-.22.3.59.59 0 0 1-.4.14H9l4.55-11.47h1.89zm-3.53-4.31L14.89 9.5a11.62 11.62 0 0 1-.39-1.24q-.09.37-.19.69l-.19.56-1.58 4.19zm-6.3-1.58a13.43 13.43 0 0 1-2.91-1.41 11.46 11.46 0 0 0 2.81-5.37H12V4H7.31a4 4 0 0 0-.2-.56C6.87 2.79 6.6 2 6.6 2l-1.47.5s.4.89.6 1.5H0v1.33h2.15A11.23 11.23 0 0 0 5 10.7a17.19 17.19 0 0 1-5 2.1q.56.82.87 1.38a23.28 23.28 0 0 0 5.22-2.51 15.64 15.64 0 0 0 3.56 1.77zM3.63 5.33h4.91a8.11 8.11 0 0 1-2.45 4.45 9.11 9.11 0 0 1-2.46-4.45z'/>
    </symbol>

    <!-- PUBLIC VIEWS -->
    <!-- 0:30 -->
    <view id="expand-sidebar" viewBox="0 10 20 20" /> <!-- 10:30 -->
    <use href="#_expand-sidebar" x="0" y="10" />

    <view id="collapse-sidebar" viewBox="0 40 20 20" /> <!-- 40:60 -->
    <use href="#_collapse-sidebar" x="0" y="40" />

    <view id="collapse-dropdown" viewBox="0 70 16 16" /> <!-- 70:86 -->
    <use href="#_collapse-dropdown" x="0" y="70" />

    <view id="expand-dropdown" viewBox="0 100 16 16" /> <!-- 100:116 -->
    <use href="#_expand-dropdown" x="0" y="100" />

    <view id="more" viewBox="0 130 20 20" /> <!-- 130:150 -->
    <use href="#_more" x="0" y="130" />

    <view id="top" viewBox="0 160 20 20" /> <!-- 160:180 -->
    <use href="#_top" x="0" y="160" />

    <view id="toc" viewBox="0 190 20 20" /> <!-- 190:210 -->
    <use href="#_toc" x="0" y="190" />

    <!-- 35:65 -->
    <view id="edit" viewBox="35 0 20 20" /> <!-- 0:20 -->
    <use href="#_edit" x="35" y="0" />

    <view id="talk" viewBox="35 30 20 20" /> <!-- 30:50 -->
    <use href="#_talk" x="35" y="30" />

    <view id="history" viewBox="35 60 20 20" /> <!-- 60:80 -->
    <use href="#_history" x="35" y="60" />

    <view id="edit-source" viewBox="35 90 20 20" /> <!-- 90:110 -->
    <use href="#_edit-source" x="35" y="90" />

    <view id="create" viewBox="35 120 16 16" /> <!-- 120:136 -->
    <use href="#_create" x="35" y="120" />

    <view id="view" viewBox="35 150 16 16" /> <!-- 150:166 -->
    <use href="#_view" x="35" y="150" />

    <view id="page" viewBox="35 180 20 20" /> <!-- 180:200 -->
    <use href="#_page" x="35" y="180" />

    <view id="contributions" viewBox="35 210 20 20" /> <!-- 210:230 -->
    <use href="#_contributions" x="35" y="210" />

    <view id="add-section" viewBox="35 240 20 20" /> <!-- 240:260 -->
    <use href="#_add-section" x="35" y="240" />

    <view id="navigation" viewBox="35 270 20 20" /> <!-- 270:290 -->
    <use href="#_navigation" x="35" y="270" />

    <view id="copy" viewBox="35 300 18 18" /> <!-- 300:320 -->
    <use href="#_copy" x="35" y="300" />

    <view id="languages" viewBox="35 330 20 20" /> <!-- 330:350 -->
    <use href="#_languages" x="35" y="330" />

</svg>
